<?xml version="1.0" encoding="UTF-8"?>
<!DOCTYPE svg PUBLIC "-//W3C//DTD SVG 1.1//EN" "http://www.w3.org/Graphics/SVG/1.1/DTD/svg11.dtd">
<svg xmlns="http://www.w3.org/2000/svg" version="1.1" width="358px" height="111px" style="shape-rendering:geometricPrecision; text-rendering:geometricPrecision; image-rendering:optimizeQuality; fill-rule:evenodd; clip-rule:evenodd" xmlns:xlink="http://www.w3.org/1999/xlink">
<g><path style="opacity:0.996" fill="#131313" d="M 32.5,-0.5 C 32.8333,-0.5 33.1667,-0.5 33.5,-0.5C 40.3509,0.681228 44.6842,4.68123 46.5,11.5C 46.5,13.1667 46.5,14.8333 46.5,16.5C 49.5,16.5 52.5,16.5 55.5,16.5C 56.1599,17.964 56.4932,19.6307 56.5,21.5C 56.5877,23.7125 56.0877,25.7125 55,27.5C 46.3681,24.1694 37.5348,23.6694 28.5,26C 17.7176,31.3963 13.8842,39.8963 17,51.5C 18.4578,53.96 20.2911,56.1266 22.5,58C 31.3167,62.0517 40.3167,65.7184 49.5,69C 52.9161,74.5878 51.5828,78.5878 45.5,81C 35.8538,82.2979 27.3538,79.7979 20,73.5C 19.8029,78.0855 19.3029,82.5855 18.5,87C 12.1754,87.4995 5.84209,87.6662 -0.5,87.5C -0.5,83.8333 -0.5,80.1667 -0.5,76.5C 2.03803,56.3289 4.37137,35.9955 6.5,15.5C 10.5,15.5 14.5,15.5 18.5,15.5C 18.5933,6.07775 23.26,0.744421 32.5,-0.5 Z M 43.5,15.5 C 36.0869,16.1279 29.0869,15.4612 22.5,13.5C 23.5226,7.64542 27.0226,4.31208 33,3.5C 39.5081,4.84283 43.0081,8.84283 43.5,15.5 Z"/></g>
<g><path style="opacity:0.991" fill="#0f0f0f" d="M 84.5,6.5 C 84.5,8.16667 84.5,9.83333 84.5,11.5C 82.5,11.5 80.5,11.5 78.5,11.5C 77.7839,9.44366 77.1172,7.27699 76.5,5C 77.8333,4.83333 79.1667,4.66667 80.5,4.5C 82.3328,4.58544 83.6661,5.2521 84.5,6.5 Z"/></g>
<g><path style="opacity:0.133" fill="#b4adad" d="M 84.5,6.5 C 85.4614,8.26465 85.7947,10.2646 85.5,12.5C 85.5,13.1667 85.5,13.8333 85.5,14.5C 83.3074,13.1047 80.9741,12.1047 78.5,11.5C 80.5,11.5 82.5,11.5 84.5,11.5C 84.5,9.83333 84.5,8.16667 84.5,6.5 Z"/></g>
<g><path style="opacity:0.987" fill="#030303" d="M 70.5,12.5 C 71.8333,12.5 73.1667,12.5 74.5,12.5C 74.5,13.5 74.5,14.5 74.5,15.5C 74.5,16.8333 74.5,18.1667 74.5,19.5C 72.1667,19.5 69.8333,19.5 67.5,19.5C 67.5,18.5 67.5,17.5 67.5,16.5C 67.5,15.1667 67.5,13.8333 67.5,12.5C 68.5,12.5 69.5,12.5 70.5,12.5 Z"/></g>
<g><path style="opacity:0.963" fill="#ff3b39" d="M 85.5,12.5 C 87.8333,12.5 90.1667,12.5 92.5,12.5C 92.5,13.8333 92.5,15.1667 92.5,16.5C 92.5,17.5 92.5,18.5 92.5,19.5C 89.7892,19.8151 87.4559,19.1484 85.5,17.5C 85.5,16.5 85.5,15.5 85.5,14.5C 85.5,13.8333 85.5,13.1667 85.5,12.5 Z"/></g>
<g><path style="opacity:0.133" fill="#b4b4b4" d="M 22.5,13.5 C 29.0869,15.4612 36.0869,16.1279 43.5,15.5C 36.3524,16.4916 29.0191,16.825 21.5,16.5C 21.2627,15.209 21.596,14.209 22.5,13.5 Z"/></g>
<g><path style="opacity:0.133" fill="#b4b4b4" d="M 46.5,11.5 C 47.4345,12.5676 47.7678,13.901 47.5,15.5C 50.3854,15.1936 53.0521,15.5269 55.5,16.5C 52.5,16.5 49.5,16.5 46.5,16.5C 46.5,14.8333 46.5,13.1667 46.5,11.5 Z"/></g>
<g><path style="opacity:0.102" fill="#ababab" d="M 70.5,12.5 C 69.5,12.5 68.5,12.5 67.5,12.5C 67.5,13.8333 67.5,15.1667 67.5,16.5C 66.5489,15.0813 66.2155,13.4147 66.5,11.5C 68.099,11.2322 69.4324,11.5655 70.5,12.5 Z"/></g>
<g><path style="opacity:0.964" fill="#ff544b" d="M 316.5,14.5 C 319.167,14.5 321.833,14.5 324.5,14.5C 323.921,20.0723 322.421,25.4057 320,30.5C 318.455,34.5072 315.955,35.3406 312.5,33C 314.635,27.029 315.968,20.8623 316.5,14.5 Z"/></g>
<g><path style="opacity:0.955" fill="#ff4b44" d="M 265.5,17.5 C 269.547,17.5352 272.214,19.5352 273.5,23.5C 270.99,30.0323 267.156,31.0323 262,26.5C 260.665,22.3919 261.832,19.3919 265.5,17.5 Z"/></g>
<g><path style="opacity:0.329" fill="#959595" d="M 74.5,15.5 C 75.4345,16.5676 75.7678,17.901 75.5,19.5C 75.5,19.8333 75.5,20.1667 75.5,20.5C 72.6146,20.8064 69.9479,20.4731 67.5,19.5C 69.8333,19.5 72.1667,19.5 74.5,19.5C 74.5,18.1667 74.5,16.8333 74.5,15.5 Z"/></g>
<g><path style="opacity:0.981" fill="#ff413b" d="M 142.5,26.5 C 142.5,28.5 142.5,30.5 142.5,32.5C 139.5,32.5 136.5,32.5 133.5,32.5C 133.923,30.2188 133.256,28.5521 131.5,27.5C 129.856,27.2865 128.356,27.6198 127,28.5C 126.501,32.1516 126.335,35.8183 126.5,39.5C 139.737,36.5749 145.404,41.7416 143.5,55C 143.601,59.2811 143.101,63.4477 142,67.5C 141.097,68.7014 139.931,69.5348 138.5,70C 131.751,70.8773 125.084,70.544 118.5,69C 117.299,68.0975 116.465,66.9308 116,65.5C 115.501,61.8484 115.335,58.1817 115.5,54.5C 118.85,54.335 122.183,54.5017 125.5,55C 126.423,57.0408 126.756,59.2075 126.5,61.5C 127.449,62.1524 128.615,62.4857 130,62.5C 131.681,62.3917 132.848,61.7251 133.5,60.5C 133.789,56.8936 133.456,53.3936 132.5,50C 128.5,49.6667 124.5,49.3333 120.5,49C 118.333,48.1667 116.833,46.6667 116,44.5C 110.322,21.8413 118.488,14.008 140.5,21C 141.861,22.5843 142.528,24.4176 142.5,26.5 Z"/></g>
<g><path style="opacity:0.981" fill="#ff413b" d="M 206.5,53.5 C 204.052,52.5269 201.385,52.1936 198.5,52.5C 198.5,58.1667 198.5,63.8333 198.5,69.5C 194.833,69.5 191.167,69.5 187.5,69.5C 187.333,55.1628 187.5,40.8295 188,26.5C 188.45,24.481 189.283,22.6477 190.5,21C 197.711,18.1934 205.044,17.8601 212.5,20C 215.102,20.935 216.602,22.7683 217,25.5C 217.5,40.1629 217.667,54.8295 217.5,69.5C 213.833,69.5 210.167,69.5 206.5,69.5C 206.5,64.1667 206.5,58.8333 206.5,53.5 Z M 199.5,26.5 C 201.792,26.2436 203.959,26.5769 206,27.5C 206.499,33.1569 206.666,38.8236 206.5,44.5C 204.167,44.5 201.833,44.5 199.5,44.5C 199.5,38.5 199.5,32.5 199.5,26.5 Z"/></g>
<g><path style="opacity:0.984" fill="#ff3a37" d="M 87.5,20.5 C 88.0736,23.8459 88.7402,27.1792 89.5,30.5C 89.3764,31.1067 89.0431,31.44 88.5,31.5C 84.8333,31.5 81.1667,31.5 77.5,31.5C 77.7373,30.209 77.404,29.209 76.5,28.5C 76.5,27.5 76.5,26.5 76.5,25.5C 76.5,23.8333 76.5,22.1667 76.5,20.5C 80.1667,20.5 83.8333,20.5 87.5,20.5 Z"/></g>
<g><path style="opacity:0.995" fill="#ff3836" d="M 169.5,40.5 C 170.491,34.021 170.824,27.3543 170.5,20.5C 173.833,20.5 177.167,20.5 180.5,20.5C 180.5,36.8333 180.5,53.1667 180.5,69.5C 176.833,69.5 173.167,69.5 169.5,69.5C 169.5,63.1667 169.5,56.8333 169.5,50.5C 166.833,50.5 164.167,50.5 161.5,50.5C 161.5,56.8333 161.5,63.1667 161.5,69.5C 157.833,69.5 154.167,69.5 150.5,69.5C 150.5,52.8333 150.5,36.1667 150.5,19.5C 154.167,19.5 157.833,19.5 161.5,19.5C 161.5,26.5 161.5,33.5 161.5,40.5C 164.167,40.5 166.833,40.5 169.5,40.5 Z"/></g>
<g><path style="opacity:0.529" fill="#ff7573" d="M 180.5,20.5 C 177.167,20.5 173.833,20.5 170.5,20.5C 170.824,27.3543 170.491,34.021 169.5,40.5C 169.5,33.5 169.5,26.5 169.5,19.5C 173.371,19.185 177.038,19.5184 180.5,20.5 Z"/></g>
<g><path style="opacity:0.259" fill="#ffa3a3" d="M 235.5,20.5 C 232.167,20.5 228.833,20.5 225.5,20.5C 225.5,36.8333 225.5,53.1667 225.5,69.5C 224.503,53.0084 224.17,36.3417 224.5,19.5C 228.371,19.185 232.038,19.5184 235.5,20.5 Z"/></g>
<g><path style="opacity:0.984" fill="#ff3f3a" d="M 239.5,50.5 C 238.432,49.5655 237.099,49.2322 235.5,49.5C 235.5,56.1667 235.5,62.8333 235.5,69.5C 232.167,69.5 228.833,69.5 225.5,69.5C 225.5,53.1667 225.5,36.8333 225.5,20.5C 228.833,20.5 232.167,20.5 235.5,20.5C 236.167,27.0119 236.833,33.6786 237.5,40.5C 240.953,33.8102 243.619,26.8102 245.5,19.5C 248.833,19.5 252.167,19.5 255.5,19.5C 253.536,27.5581 250.869,35.3914 247.5,43C 251.123,51.3646 254.456,59.8646 257.5,68.5C 253.555,69.4909 249.555,69.8242 245.5,69.5C 243.5,63.1667 241.5,56.8333 239.5,50.5 Z"/></g>
<g><path style="opacity:0.478" fill="#ff7776" d="M 290.5,20.5 C 287.167,20.5 283.833,20.5 280.5,20.5C 280.5,36.8333 280.5,53.1667 280.5,69.5C 279.503,53.0084 279.17,36.3417 279.5,19.5C 283.371,19.185 287.038,19.5184 290.5,20.5 Z"/></g>
<g><path style="opacity:0.973" fill="#ff3b37" d="M 294.5,51.5 C 294.38,50.4138 293.713,49.7472 292.5,49.5C 291.584,49.5427 290.917,49.8761 290.5,50.5C 290.5,56.8333 290.5,63.1667 290.5,69.5C 287.167,69.5 283.833,69.5 280.5,69.5C 280.5,53.1667 280.5,36.8333 280.5,20.5C 283.833,20.5 287.167,20.5 290.5,20.5C 290.5,27.1667 290.5,33.8333 290.5,40.5C 291.5,40.5 292.5,40.5 293.5,40.5C 295.428,33.7179 297.761,27.0513 300.5,20.5C 303.768,19.513 307.102,19.1796 310.5,19.5C 308.239,27.2817 305.572,34.9484 302.5,42.5C 305.74,51.3889 309.073,60.2223 312.5,69C 308.459,69.8265 304.459,69.6599 300.5,68.5C 298.207,62.9192 296.207,57.2525 294.5,51.5 Z"/></g>
<g><path style="opacity:0.141" fill="#ffaaa9" d="M 92.5,16.5 C 93.4345,17.5676 93.7678,18.901 93.5,20.5C 91.5,20.5 89.5,20.5 87.5,20.5C 83.8333,20.5 80.1667,20.5 76.5,20.5C 76.5,22.1667 76.5,23.8333 76.5,25.5C 75.5489,24.0813 75.2155,22.4147 75.5,20.5C 75.5,20.1667 75.5,19.8333 75.5,19.5C 79.3293,20.069 82.6627,19.4023 85.5,17.5C 87.4559,19.1484 89.7892,19.8151 92.5,19.5C 92.5,18.5 92.5,17.5 92.5,16.5 Z"/></g>
<g><path style="opacity:0.22" fill="#ffaaaa" d="M 76.5,28.5 C 77.404,29.209 77.7373,30.209 77.5,31.5C 81.1667,31.5 84.8333,31.5 88.5,31.5C 84.7016,32.4834 80.7016,32.8168 76.5,32.5C 76.5,31.1667 76.5,29.8333 76.5,28.5 Z"/></g>
<g><path style="opacity:0.125" fill="#ffb0af" d="M 352.5,39.5 C 352.5,37.1667 352.5,34.8333 352.5,32.5C 344.5,32.5 336.5,32.5 328.5,32.5C 328.5,34.8333 328.5,37.1667 328.5,39.5C 327.527,37.0521 327.194,34.3854 327.5,31.5C 336.167,31.5 344.833,31.5 353.5,31.5C 353.806,34.3854 353.473,37.0521 352.5,39.5 Z"/></g>
<g><path style="opacity:0.369" fill="#ff8b89" d="M 142.5,26.5 C 143.468,28.6074 143.802,30.9407 143.5,33.5C 139.833,33.5 136.167,33.5 132.5,33.5C 132.675,31.3792 132.341,29.3792 131.5,27.5C 133.256,28.5521 133.923,30.2188 133.5,32.5C 136.5,32.5 139.5,32.5 142.5,32.5C 142.5,30.5 142.5,28.5 142.5,26.5 Z"/></g>
<g><path style="opacity:0.992" fill="#ff403b" d="M 262.5,32.5 C 265.5,32.5 268.5,32.5 271.5,32.5C 271.5,44.8333 271.5,57.1667 271.5,69.5C 268.167,69.5 264.833,69.5 261.5,69.5C 261.171,56.9887 261.505,44.6554 262.5,32.5 Z"/></g>
<g><path style="opacity:0.565" fill="#ff6e6a" d="M 262.5,32.5 C 265.625,31.5206 268.958,31.1872 272.5,31.5C 272.829,44.3443 272.495,57.011 271.5,69.5C 271.5,57.1667 271.5,44.8333 271.5,32.5C 268.5,32.5 265.5,32.5 262.5,32.5 Z"/></g>
<g><path style="opacity:0.976" fill="#ff3f3a" d="M 352.5,39.5 C 348.555,46.77 344.222,53.77 339.5,60.5C 338.957,60.56 338.624,60.8933 338.5,61.5C 343.12,62.4933 347.786,62.8266 352.5,62.5C 352.5,64.8333 352.5,67.1667 352.5,69.5C 344.167,69.5 335.833,69.5 327.5,69.5C 327.336,66.8127 327.503,64.146 328,61.5C 332.376,54.581 336.876,47.7477 341.5,41C 336.981,40.8247 332.647,40.3247 328.5,39.5C 328.5,37.1667 328.5,34.8333 328.5,32.5C 336.5,32.5 344.5,32.5 352.5,32.5C 352.5,34.8333 352.5,37.1667 352.5,39.5 Z"/></g>
<g><path style="opacity:0.522" fill="#ff6565" d="M 76.5,34.5 C 70.5,34.5 64.5,34.5 58.5,34.5C 58.8134,37.2469 58.48,39.9135 57.5,42.5C 56.8933,42.3764 56.56,42.0431 56.5,41.5C 57.4731,39.0521 57.8064,36.3854 57.5,33.5C 64.0221,33.1765 70.3554,33.5098 76.5,34.5 Z"/></g>
<g><path style="opacity:0.989" fill="#ff403a" d="M 76.5,34.5 C 78.9145,57.7321 81.5812,80.8988 84.5,104C 63.6512,105.488 42.6512,105.988 21.5,105.5C 21.5,100.167 21.5,94.8333 21.5,89.5C 27.7331,91.2427 34.0664,92.576 40.5,93.5C 60.7071,91.8375 67.8738,81.5041 62,62.5C 59.6166,59.7272 56.7833,57.5605 53.5,56C 46.422,53.5297 39.422,50.863 32.5,48C 27.3526,40.419 29.5193,36.2523 39,35.5C 45.3373,36.223 51.1706,38.223 56.5,41.5C 56.56,42.0431 56.8933,42.3764 57.5,42.5C 58.48,39.9135 58.8134,37.2469 58.5,34.5C 64.5,34.5 70.5,34.5 76.5,34.5 Z"/></g>
<g><path style="opacity:0.263" fill="#ffa3a2" d="M 290.5,50.5 C 290.917,49.8761 291.584,49.5427 292.5,49.5C 293.713,49.7472 294.38,50.4138 294.5,51.5C 293.292,50.7659 291.959,50.4326 290.5,50.5 Z"/></g>
<g><path style="opacity:0.11" fill="#ffbfbe" d="M 239.5,50.5 C 238.5,50.5 237.5,50.5 236.5,50.5C 236.823,57.0221 236.49,63.3554 235.5,69.5C 235.5,62.8333 235.5,56.1667 235.5,49.5C 237.099,49.2322 238.432,49.5655 239.5,50.5 Z"/></g>
<g><path style="opacity:0.11" fill="#ffbcbc" d="M 206.5,53.5 C 204.167,53.5 201.833,53.5 199.5,53.5C 199.821,59.0262 199.488,64.3595 198.5,69.5C 198.5,63.8333 198.5,58.1667 198.5,52.5C 201.385,52.1936 204.052,52.5269 206.5,53.5 Z"/></g>
<g><path style="opacity:0.227" fill="#ff9e9c" d="M 133.5,60.5 C 132.848,61.7251 131.681,62.3917 130,62.5C 128.615,62.4857 127.449,62.1524 126.5,61.5C 128.95,61.702 131.283,61.3686 133.5,60.5 Z"/></g>
<g><path style="opacity:0.369" fill="#ff8989" d="M 339.5,60.5 C 343.97,61.4861 348.637,61.8195 353.5,61.5C 353.806,64.3854 353.473,67.0521 352.5,69.5C 352.5,67.1667 352.5,64.8333 352.5,62.5C 347.786,62.8266 343.12,62.4933 338.5,61.5C 338.624,60.8933 338.957,60.56 339.5,60.5 Z"/></g>
<g><path style="opacity:0.987" fill="#191919" d="M 109.5,77.5 C 123.363,75.1763 127.696,80.3429 122.5,93C 120.19,93.4966 117.857,93.6633 115.5,93.5C 115.5,96.8333 115.5,100.167 115.5,103.5C 113.5,103.5 111.5,103.5 109.5,103.5C 109.5,94.8333 109.5,86.1667 109.5,77.5 Z"/></g>
<g><path style="opacity:0.447" fill="#868686" d="M 139.5,78.5 C 136.167,78.5 132.833,78.5 129.5,78.5C 129.5,86.8333 129.5,95.1667 129.5,103.5C 128.507,95.0161 128.174,86.3494 128.5,77.5C 132.371,77.185 136.038,77.5184 139.5,78.5 Z"/></g>
<g><path style="opacity:0.995" fill="#101010" d="M 139.5,78.5 C 140.822,78.33 141.989,78.6634 143,79.5C 142.756,87.4252 142.923,95.4252 143.5,103.5C 141.5,103.5 139.5,103.5 137.5,103.5C 137.5,100.167 137.5,96.8333 137.5,93.5C 136.5,93.5 135.5,93.5 134.5,93.5C 134.5,96.8333 134.5,100.167 134.5,103.5C 132.833,103.5 131.167,103.5 129.5,103.5C 129.5,95.1667 129.5,86.8333 129.5,78.5C 132.833,78.5 136.167,78.5 139.5,78.5 Z"/></g>
<g><path style="opacity:0.447" fill="#878787" d="M 160.5,78.5 C 156.833,78.5 153.167,78.5 149.5,78.5C 149.5,86.8333 149.5,95.1667 149.5,103.5C 148.507,95.0161 148.174,86.3494 148.5,77.5C 152.702,77.1832 156.702,77.5166 160.5,78.5 Z"/></g>
<g><path style="opacity:0.996" fill="#0e0e0e" d="M 160.5,78.5 C 160.5,80.1667 160.5,81.8333 160.5,83.5C 158.5,83.5 156.5,83.5 154.5,83.5C 154.5,85.1667 154.5,86.8333 154.5,88.5C 156.167,88.5 157.833,88.5 159.5,88.5C 159.5,89.8333 159.5,91.1667 159.5,92.5C 157.585,92.2155 155.919,92.5489 154.5,93.5C 154.5,95.1667 154.5,96.8333 154.5,98.5C 156.5,98.5 158.5,98.5 160.5,98.5C 160.5,100.167 160.5,101.833 160.5,103.5C 156.833,103.5 153.167,103.5 149.5,103.5C 149.5,95.1667 149.5,86.8333 149.5,78.5C 153.167,78.5 156.833,78.5 160.5,78.5 Z"/></g>
<g><path style="opacity:0.989" fill="#171717" d="M 174.5,82.5 C 173.432,81.5655 172.099,81.2322 170.5,81.5C 170.5,88.8333 170.5,96.1667 170.5,103.5C 168.833,103.5 167.167,103.5 165.5,103.5C 165.334,95.4931 165.5,87.4931 166,79.5C 167.473,77.9929 169.307,77.3262 171.5,77.5C 175.167,78.8333 178.833,78.8333 182.5,77.5C 184.808,77.3647 186.808,78.0314 188.5,79.5C 189.469,87.4441 189.802,95.4441 189.5,103.5C 187.5,103.5 185.5,103.5 183.5,103.5C 183.5,96.5 183.5,89.5 183.5,82.5C 182.5,82.5 181.5,82.5 180.5,82.5C 180.5,89.5 180.5,96.5 180.5,103.5C 178.5,103.5 176.5,103.5 174.5,103.5C 174.5,96.5 174.5,89.5 174.5,82.5 Z"/></g>
<g><path style="opacity:0.565" fill="#585858" d="M 199.5,103.5 C 199.5,95.1667 199.5,86.8333 199.5,78.5C 198.167,78.5 196.833,78.5 195.5,78.5C 195.5,86.8333 195.5,95.1667 195.5,103.5C 194.507,95.0161 194.174,86.3494 194.5,77.5C 196.5,77.5 198.5,77.5 200.5,77.5C 200.826,86.3494 200.493,95.0161 199.5,103.5 Z"/></g>
<g><path style="opacity:0.997" fill="#000000" d="M 199.5,103.5 C 198.167,103.5 196.833,103.5 195.5,103.5C 195.5,95.1667 195.5,86.8333 195.5,78.5C 196.833,78.5 198.167,78.5 199.5,78.5C 199.5,86.8333 199.5,95.1667 199.5,103.5 Z"/></g>
<g><path style="opacity:0.992" fill="#2b2b2b" d="M 211.5,98.5 C 212.053,100.552 213.053,100.885 214.5,99.5C 214.334,92.4921 214.5,85.4921 215,78.5C 217,77.1667 219,77.1667 221,78.5C 221.667,85.5 221.667,92.5 221,99.5C 220.011,103.255 217.511,104.922 213.5,104.5C 210.029,104.849 207.529,103.516 206,100.5C 205.333,93.1667 205.333,85.8333 206,78.5C 207.699,77.5939 209.533,77.2606 211.5,77.5C 211.5,84.5 211.5,91.5 211.5,98.5 Z"/></g>
<g><path style="opacity:0.989" fill="#171717" d="M 235.5,82.5 C 234.432,81.5655 233.099,81.2322 231.5,81.5C 231.5,88.8333 231.5,96.1667 231.5,103.5C 229.833,103.5 228.167,103.5 226.5,103.5C 226.334,95.4931 226.5,87.4931 227,79.5C 228.473,77.9929 230.307,77.3262 232.5,77.5C 236.167,78.8333 239.833,78.8333 243.5,77.5C 245.808,77.3647 247.808,78.0314 249.5,79.5C 250.469,87.4441 250.802,95.4441 250.5,103.5C 248.5,103.5 246.5,103.5 244.5,103.5C 244.5,96.5 244.5,89.5 244.5,82.5C 243.5,82.5 242.5,82.5 241.5,82.5C 241.5,89.5 241.5,96.5 241.5,103.5C 239.5,103.5 237.5,103.5 235.5,103.5C 235.5,96.5 235.5,89.5 235.5,82.5 Z"/></g>
<g><path style="opacity:0.991" fill="#222222" d="M 290.5,82.5 C 289.539,84.2646 289.205,86.2646 289.5,88.5C 291.5,88.5 293.5,88.5 295.5,88.5C 297.411,88.5743 298.578,89.5743 299,91.5C 301.178,103.162 296.678,106.995 285.5,103C 284.565,100.619 284.232,98.1194 284.5,95.5C 288.241,94.5985 290.241,95.9319 290.5,99.5C 291.5,99.5 292.5,99.5 293.5,99.5C 293.5,97.5 293.5,95.5 293.5,93.5C 290.315,93.9804 287.481,93.3137 285,91.5C 281.625,78.532 285.958,74.532 298,79.5C 298.495,81.4727 298.662,83.4727 298.5,85.5C 296.801,85.6602 295.134,85.4935 293.5,85C 292.922,83.583 291.922,82.7496 290.5,82.5 Z"/></g>
<g><path style="opacity:0.396" fill="#828282" d="M 309.5,84.5 C 308.539,82.7354 308.205,80.7354 308.5,78.5C 307.167,78.5 305.833,78.5 304.5,78.5C 304.5,86.8333 304.5,95.1667 304.5,103.5C 303.507,95.0161 303.174,86.3494 303.5,77.5C 305.5,77.5 307.5,77.5 309.5,77.5C 309.5,79.8333 309.5,82.1667 309.5,84.5 Z"/></g>
<g><path style="opacity:0.996" fill="#1b1b1b" d="M 309.5,84.5 C 312.912,82.8151 315.746,83.4818 318,86.5C 318.499,92.1569 318.666,97.8236 318.5,103.5C 316.5,103.5 314.5,103.5 312.5,103.5C 312.5,98.5 312.5,93.5 312.5,88.5C 311.5,88.5 310.5,88.5 309.5,88.5C 309.5,93.5 309.5,98.5 309.5,103.5C 307.833,103.5 306.167,103.5 304.5,103.5C 304.5,95.1667 304.5,86.8333 304.5,78.5C 305.833,78.5 307.167,78.5 308.5,78.5C 308.205,80.7354 308.539,82.7354 309.5,84.5 Z"/></g>
<g><path style="opacity:1" fill="#858585" d="M 118.5,82.5 C 117.5,82.5 116.5,82.5 115.5,82.5C 115.5,84.8333 115.5,87.1667 115.5,89.5C 116.5,89.5 117.5,89.5 118.5,89.5C 117.432,90.4345 116.099,90.7678 114.5,90.5C 114.5,87.5 114.5,84.5 114.5,81.5C 116.099,81.2322 117.432,81.5655 118.5,82.5 Z"/></g>
<g><path style="opacity:1" fill="#fefffe" d="M 118.5,82.5 C 118.5,84.8333 118.5,87.1667 118.5,89.5C 117.5,89.5 116.5,89.5 115.5,89.5C 115.5,87.1667 115.5,84.8333 115.5,82.5C 116.5,82.5 117.5,82.5 118.5,82.5 Z"/></g>
<g><path style="opacity:1" fill="#d8d8d8" d="M 134.5,81.5 C 135.822,81.33 136.989,81.6634 138,82.5C 138.497,84.8098 138.663,87.1432 138.5,89.5C 137.167,89.5 135.833,89.5 134.5,89.5C 134.5,86.8333 134.5,84.1667 134.5,81.5 Z"/></g>
<g><path style="opacity:0.271" fill="#9e9e9e" d="M 174.5,82.5 C 173.5,82.5 172.5,82.5 171.5,82.5C 171.825,89.6866 171.491,96.6866 170.5,103.5C 170.5,96.1667 170.5,88.8333 170.5,81.5C 172.099,81.2322 173.432,81.5655 174.5,82.5 Z"/></g>
<g><path style="opacity:0.271" fill="#9e9e9e" d="M 235.5,82.5 C 234.5,82.5 233.5,82.5 232.5,82.5C 232.825,89.6866 232.491,96.6866 231.5,103.5C 231.5,96.1667 231.5,88.8333 231.5,81.5C 233.099,81.2322 234.432,81.5655 235.5,82.5 Z"/></g>
<g><path style="opacity:0.993" fill="#232323" d="M 268.5,83.5 C 278.398,81.7326 282.065,85.7326 279.5,95.5C 276.5,95.5 273.5,95.5 270.5,95.5C 270.5,96.8333 270.5,98.1667 270.5,99.5C 272.359,99.5391 273.692,98.7058 274.5,97C 276.134,96.5065 277.801,96.3398 279.5,96.5C 279.447,103.88 275.78,106.38 268.5,104C 267.584,103.626 266.75,103.126 266,102.5C 264.445,97.6178 264.112,92.6178 265,87.5C 265.69,85.6498 266.856,84.3164 268.5,83.5 Z"/></g>
<g><path style="opacity:0.992" fill="#252525" d="M 326.5,83.5 C 329.518,83.3354 332.518,83.502 335.5,84C 336.701,84.9025 337.535,86.0692 338,87.5C 338.667,91.8333 338.667,96.1667 338,100.5C 337.5,102.333 336.333,103.5 334.5,104C 331.833,104.667 329.167,104.667 326.5,104C 325.333,103.5 324.5,102.667 324,101.5C 323.333,96.5 323.333,91.5 324,86.5C 324.698,85.3094 325.531,84.3094 326.5,83.5 Z M 329.5,87.5 C 330.5,87.5 331.5,87.5 332.5,87.5C 332.5,91.8333 332.5,96.1667 332.5,100.5C 331.5,100.5 330.5,100.5 329.5,100.5C 329.5,96.1667 329.5,91.8333 329.5,87.5 Z"/></g>
<g><path style="opacity:0.986" fill="#272727" d="M 357.5,85.5 C 357.5,90.8333 357.5,96.1667 357.5,101.5C 355.225,104.389 352.392,105.056 349,103.5C 348.503,105.81 348.337,108.143 348.5,110.5C 346.833,110.5 345.167,110.5 343.5,110.5C 342.53,101.918 342.197,93.2511 342.5,84.5C 345.709,84.5893 348.875,84.256 352,83.5C 354.009,83.7579 355.843,84.4245 357.5,85.5 Z M 348.5,88.5 C 349.5,88.5 350.5,88.5 351.5,88.5C 351.5,92.1667 351.5,95.8333 351.5,99.5C 350.5,99.5 349.5,99.5 348.5,99.5C 348.5,95.8333 348.5,92.1667 348.5,88.5 Z"/></g>
<g><path style="opacity:0.235" fill="#b4b4b4" d="M 290.5,82.5 C 290.5,84.1667 290.5,85.8333 290.5,87.5C 292.415,87.2155 294.081,87.5489 295.5,88.5C 293.5,88.5 291.5,88.5 289.5,88.5C 289.205,86.2646 289.539,84.2646 290.5,82.5 Z"/></g>
<g><path style="opacity:1" fill="#f5f5f5" d="M 273.5,87.5 C 273.5,88.8333 273.5,90.1667 273.5,91.5C 272.5,91.5 271.5,91.5 270.5,91.5C 270.5,90.1667 270.5,88.8333 270.5,87.5C 271.5,87.5 272.5,87.5 273.5,87.5 Z"/></g>
<g><path style="opacity:1" fill="#777777" d="M 273.5,87.5 C 274.451,88.9187 274.784,90.5853 274.5,92.5C 272.901,92.7678 271.568,92.4345 270.5,91.5C 271.5,91.5 272.5,91.5 273.5,91.5C 273.5,90.1667 273.5,88.8333 273.5,87.5 Z"/></g>
<g><path style="opacity:0.31" fill="#8f8f8f" d="M 159.5,88.5 C 160.451,89.9187 160.784,91.5853 160.5,93.5C 158.5,93.5 156.5,93.5 154.5,93.5C 155.919,92.5489 157.585,92.2155 159.5,92.5C 159.5,91.1667 159.5,89.8333 159.5,88.5 Z"/></g>
<g><path style="opacity:0.412" fill="#7b7b7b" d="M 211.5,98.5 C 212.391,99.1098 213.391,99.4431 214.5,99.5C 213.053,100.885 212.053,100.552 211.5,98.5 Z"/></g>
</svg>
